<svg width="207" height="62" viewBox="0 0 207 62" fill="none" xmlns="http://www.w3.org/2000/svg">
	<path d="M32.8961 47.744C32.3841 48.5547 31.4454 49.2373 30.0801 49.792C28.7574 50.3467 27.6054 50.624 26.6241 50.624H26.3681C26.3681 49.6 26.0694 48.1707 25.4721 46.336L25.1521 45.44C23.2747 45.952 21.1201 46.208 18.6881 46.208C12.3307 46.208 7.61608 44.3733 4.54408 40.704C1.51474 37.0347 7.82013e-05 32.4267 7.82013e-05 26.88C7.82013e-05 24.192 0.320078 21.6747 0.960078 19.328C1.60008 16.9813 2.19741 15.3173 2.75208 14.336C3.30675 13.312 3.77608 12.7147 4.16008 12.544C4.54408 12.3307 5.46141 12.224 6.91208 12.224C8.36275 12.224 9.17341 12.2453 9.34408 12.288C9.34408 10.1547 9.74941 8.32001 10.5601 6.78402C11.4134 5.20535 12.4801 4.03202 13.7601 3.26402C16.1921 1.81335 18.5601 1.08801 20.8641 1.08801C32.7254 1.08801 38.6561 8.55468 38.6561 23.488C38.6561 32.3627 36.1601 38.72 31.1681 42.56C32.3201 44.9067 32.8961 46.6347 32.8961 47.744ZM27.5841 35.328C29.4614 32.5973 30.4001 28.48 30.4001 22.976C30.4001 12.9067 27.3921 7.87201 21.3761 7.87201C19.7121 7.87201 18.4107 8.38401 17.4721 9.40801C16.5761 10.3893 16.1281 11.648 16.1281 13.184C16.1281 14.6773 16.5974 16.448 17.5361 18.496C18.5174 20.544 19.4987 22.1653 20.4801 23.36L21.8881 25.152C21.8881 25.664 21.0987 26.1547 19.5201 26.624C17.9414 27.0507 16.6827 27.264 15.7441 27.264C15.5307 27.264 15.0827 26.8587 14.4001 26.048C13.7174 25.2373 12.9494 24 12.0961 22.336C11.2427 20.6293 10.6241 18.8373 10.2401 16.96C9.55741 17.6427 9.02408 18.9653 8.64008 20.928C8.29875 22.848 8.12808 24.7253 8.12808 26.56C8.12808 30.144 9.13075 33.216 11.1361 35.776C13.1414 38.2933 15.6801 39.552 18.7521 39.552C20.1174 39.552 21.3761 39.3813 22.5281 39.04C21.1201 36.1813 20.1174 34.3467 19.5201 33.536C20.8854 32.4267 22.7414 31.872 25.0881 31.872C25.4721 32.0853 26.1547 32.9813 27.1361 34.56L27.5841 35.328ZM59.5241 41.984L59.4601 40.64L59.3961 40.512C58.3721 42.0907 57.0707 43.3493 55.4921 44.288C53.9561 45.2267 52.4414 45.696 50.9481 45.696C46.4681 45.696 43.9081 42.2187 43.2681 35.264C43.1827 34.1547 43.1401 31.296 43.1401 26.688C43.1401 22.08 43.3321 19.3493 43.7161 18.496C44.8254 17.6 46.6174 17.152 49.0921 17.152C50.0734 17.152 50.6707 17.2587 50.8841 17.472C50.8841 17.5147 50.8627 18.0907 50.8201 19.2C50.6067 22.4427 50.5001 24.9387 50.5001 26.688C50.5001 28.4373 50.5214 29.7387 50.5641 30.592C50.6067 31.4027 50.6281 31.936 50.6281 32.192C50.6707 32.4053 50.7347 32.8107 50.8201 33.408C50.9481 34.0053 51.1187 34.5173 51.3321 34.944C51.9721 36.1813 52.9534 36.8 54.2761 36.8C55.6414 36.8 56.8361 36.1387 57.8601 34.816C58.9267 33.4507 59.4387 32.4907 59.3961 31.936V29.76C59.3961 21.952 59.5241 17.7493 59.7801 17.152C59.9934 16.768 60.6547 16.3627 61.7641 15.936C62.9161 15.5093 64.0467 15.296 65.1561 15.296C66.2654 15.296 66.9054 15.3813 67.0761 15.552L66.9481 18.56C66.6921 24.6613 66.5641 29.376 66.5641 32.704C66.5641 36.032 66.6494 38.144 66.8201 39.04C67.1187 41.1733 67.6947 42.88 68.5481 44.16C68.5481 44.5867 67.6734 45.2693 65.9241 46.208C64.1747 47.1467 62.6814 47.616 61.4441 47.616C61.1027 47.616 60.7187 46.976 60.2921 45.696C59.8654 44.416 59.6094 43.1787 59.5241 41.984ZM76.3866 6.20802C77.5812 6.20802 78.5412 6.59201 79.2666 7.36001C79.9919 8.12801 80.3546 9.13068 80.3546 10.368C80.3546 11.6053 79.8639 12.672 78.8826 13.568C77.9439 14.4213 76.8772 14.848 75.6826 14.848C74.5306 14.848 73.5919 14.4853 72.8666 13.76C72.1839 12.992 71.8426 11.9893 71.8426 10.752C71.8426 9.51468 72.3119 8.44801 73.2506 7.55201C74.1892 6.65601 75.2346 6.20802 76.3866 6.20802ZM79.6506 22.144L79.5226 32.512C79.5226 35.84 79.6079 38.2933 79.7786 39.872C79.9919 41.408 80.5466 42.8587 81.4426 44.224C81.4426 44.6507 80.5679 45.3333 78.8186 46.272C77.0692 47.2107 75.5759 47.68 74.3386 47.68C73.9546 47.68 73.5706 47.04 73.1866 45.76C72.8026 44.48 72.5466 43.264 72.4186 42.112C72.3332 40.96 72.2906 37.0773 72.2906 30.464C72.2906 23.8507 72.4399 20.2453 72.7386 19.648C73.7199 18.88 75.4479 18.496 77.9226 18.496C78.9039 18.496 79.5012 18.624 79.7146 18.88L79.6506 22.144ZM107.793 44.736C106.172 44.608 103.996 44.544 101.265 44.544C96.2304 44.544 91.9211 44.8427 88.3371 45.44L86.5451 45.696C86.2037 45.696 85.7984 45.0987 85.3291 43.904C84.8597 42.7093 84.6251 41.664 84.6251 40.768C85.0517 39.232 86.9291 36.288 90.2571 31.936C93.5851 27.584 96.0597 24.64 97.6811 23.104C98.0651 22.72 97.1477 22.4 94.9291 22.144C92.7104 21.888 90.7691 21.76 89.1051 21.76C87.4837 21.76 86.4811 21.7813 86.0971 21.824C86.0971 19.8187 86.2891 18.3893 86.6731 17.536C87.0997 16.6827 87.3771 16.192 87.5051 16.064C87.8891 15.68 89.7664 15.488 93.1371 15.488C96.5504 15.488 99.6864 15.6373 102.545 15.936C105.404 16.2347 106.961 16.512 107.217 16.768C108.028 17.9627 108.433 19.6907 108.433 21.952C106.214 23.616 103.654 26.3893 100.753 30.272C97.8517 34.1547 96.4011 36.5227 96.4011 37.376C98.0651 37.376 100.476 37.5253 103.633 37.824C106.833 38.1227 108.561 38.4213 108.817 38.72V39.424C108.817 42.2827 108.476 44.0533 107.793 44.736Z" fill="#32B8BD"/>
	<path d="M135.408 30.08C134.81 30.0373 132.976 30.016 129.904 30.016C126.832 30.016 125.04 30.1013 124.528 30.272C122.266 37.696 120.986 43.0507 120.688 46.336C120.688 46.3787 120.154 46.4 119.088 46.4C118.064 46.4 116.997 46.336 115.888 46.208C113.541 45.8667 112.368 45.568 112.368 45.312C112.368 43.6053 113.882 38.6347 116.912 30.4C116.357 29.9307 115.717 28.9707 114.992 27.52C114.266 26.0267 113.904 24.7893 113.904 23.808C113.904 23.7653 115.674 23.68 119.216 23.552C122.714 13.3973 124.698 8.04268 125.168 7.48801C125.338 7.36001 126.106 7.16801 127.472 6.91201C128.837 6.61335 129.712 6.46401 130.096 6.46401L129.968 5.63202C129.882 5.03468 129.776 4.39468 129.648 3.71201C129.562 2.98668 129.52 2.51735 129.52 2.30401C129.52 2.17601 129.882 1.92001 130.608 1.53601C132.698 0.512015 134.853 1.52588e-05 137.072 1.52588e-05C137.498 2.51735 138.053 5.73868 138.736 9.66401C139.461 13.5467 140.848 19.4987 142.896 27.52C144.944 35.5413 146.906 41.1307 148.784 44.288L149.232 45.056C149.232 45.2693 148.826 45.632 148.016 46.144C147.205 46.656 146.138 47.1467 144.816 47.616C143.493 48.0853 142.277 48.32 141.168 48.32C140.784 48.32 139.845 45.9093 138.352 41.088C136.901 36.224 135.92 32.5547 135.408 30.08ZM133.872 23.488C132.421 17.344 131.632 13.9093 131.504 13.184C131.376 12.4587 131.269 12.096 131.184 12.096C131.098 12.096 130.992 12.1813 130.864 12.352C130.48 13.0773 129.754 14.8267 128.688 17.6C127.664 20.3733 127.002 22.2933 126.704 23.36C131.44 23.36 133.829 23.4027 133.872 23.488ZM160.637 13.376L160.573 16.384C171.922 16.384 177.597 20.7787 177.597 29.568C177.597 31.9573 177.106 34.1333 176.125 36.096C175.186 38.016 174.013 39.552 172.605 40.704C171.197 41.8133 169.661 42.752 167.997 43.52C165.138 44.8427 162.578 45.504 160.317 45.504V46.464C160.317 52.864 160.488 57.1307 160.829 59.264C160.274 59.8187 159.314 60.2453 157.949 60.544C156.584 60.8853 155.474 61.056 154.621 61.056C153.768 61.056 153.341 60.992 153.341 60.864C153.17 59.4987 153.085 56.6827 153.085 52.416L153.405 22.656C153.405 19.1573 153.341 16.7253 153.213 15.36C153.725 14.848 154.578 14.3573 155.773 13.888C157.01 13.4187 158.077 13.184 158.973 13.184C159.869 13.184 160.424 13.248 160.637 13.376ZM160.317 35.2L160.381 38.4C162.984 38.4 165.266 37.6533 167.229 36.16C169.192 34.6667 170.173 32.512 170.173 29.696C170.173 25.088 166.952 22.784 160.509 22.784L160.445 23.616C160.445 24.1707 160.445 24.896 160.445 25.792L160.317 35.2ZM189.95 13.376L189.886 16.384C201.235 16.384 206.91 20.7787 206.91 29.568C206.91 31.9573 206.419 34.1333 205.438 36.096C204.499 38.016 203.326 39.552 201.918 40.704C200.51 41.8133 198.974 42.752 197.31 43.52C194.451 44.8427 191.891 45.504 189.63 45.504V46.464C189.63 52.864 189.8 57.1307 190.142 59.264C189.587 59.8187 188.627 60.2453 187.262 60.544C185.896 60.8853 184.787 61.056 183.934 61.056C183.08 61.056 182.654 60.992 182.654 60.864C182.483 59.4987 182.398 56.6827 182.398 52.416L182.718 22.656C182.718 19.1573 182.654 16.7253 182.526 15.36C183.038 14.848 183.891 14.3573 185.086 13.888C186.323 13.4187 187.39 13.184 188.286 13.184C189.182 13.184 189.736 13.248 189.95 13.376ZM189.63 35.2L189.694 38.4C192.296 38.4 194.579 37.6533 196.542 36.16C198.504 34.6667 199.486 32.512 199.486 29.696C199.486 25.088 196.264 22.784 189.822 22.784L189.758 23.616C189.758 24.1707 189.758 24.896 189.758 25.792L189.63 35.2Z" fill="#326EBD"/>
</svg>
